<!--?xml version="1.0" encoding="utf-8"?-->
<!-- Generator: Adobe Illustrator 22.1.0, SVG Export Plug-In . SVG Version: 6.00 Build 0)  -->
<svg version="1.1" id="_x31_2" xmlns="http://www.w3.org/2000/svg" xmlns:xlink="http://www.w3.org/1999/xlink" x="0px" y="0px" viewBox="0 0 771.395 800" style="width: 483px;" xml:space="preserve">
<style type="text/css">
	.st0{fill:#040000;}
</style>
<g>
	<path class="st0" d="M761.009,354.811c-6.253,0.732-8.625,4.619-11.784,9.279c-1.533,2.26-33.032,2.637-69.257,2.394
		c-1.243-11.751-3.213-23.283-5.865-34.549c36.892-7.718,68.898-13.78,70.931-11.787c4.232,4.147,7.491,7.66,14.093,7.11
		c9.827-0.819,5.121-19.552,4.275-23.572c-0.847-4.021-4.094-23.061-13.416-19.849c-6.263,2.159-7.829,6.686-10.03,12.188
		c-1.068,2.669-33.387,10.139-70.7,18.031c-3.11-10.121-6.78-19.996-10.973-29.589c30.655-16.434,59.727-31.471,61.992-30.256
		c4.207,2.26,7.519,4.247,12.506,2.338c7.423-2.841-0.428-16.285-1.987-19.207c-1.558-2.922-8.349-16.931-14.844-12.35
		c-4.363,3.078-4.558,6.935-5.026,11.688c-0.249,2.539-28.517,18.093-58.986,34.266c-4.029-8.016-8.433-15.809-13.189-23.358
		c39.697-27.527,84.58-58.099,87.92-56.754c5.202,2.095,9.323,3.987,14.897,1.116c8.297-4.274-2.6-18.952-4.796-22.161
		c-2.195-3.21-11.928-18.684-18.917-12.5c-4.696,4.155-4.425,8.682-4.358,14.289c0.043,3.597-44.646,34.308-84.663,61.317
		c-6.945-9.616-14.487-18.769-22.571-27.409c24.548-23.279,46.813-43.672,49.278-43.111c4.901,1.117,8.816,2.208,13.343-1.122
		c6.737-4.957-4.985-16.404-7.383-18.934c-2.398-2.529-13.202-14.847-18.512-8.383c-3.567,4.342-2.687,8.31-1.834,13.263
		c0.431,2.5-21.268,23.775-45.926,47.135c-8.735-8.35-18.01-16.138-27.768-23.306c26.73-40.653,57.454-86.571,61.088-86.57
		c5.614,0.001,10.148,0.217,14.252-4.533c6.107-7.07-9.5-16.627-12.739-18.787c-3.238-2.159-18.061-12.892-22.239-4.536
		c-2.808,5.613-0.865,9.716,1.294,14.899c1.395,3.349-29.079,49.218-56.298,89.474c-7.645-4.901-15.543-9.439-23.672-13.591
		c11.682-25.988,21.932-47.573,24.085-47.939c4.69-0.797,8.508-1.26,11.26-5.811c4.097-6.774-10.297-12.54-13.309-13.884
		c-3.013-1.344-16.919-8.204-19.223-0.63c-1.548,5.089,0.658,8.239,3.198,12.262c1.16,1.838-7.967,23.692-19.428,49.591
		c-11.567-5.147-23.549-9.528-35.877-13.083c12.634-47.996,26.165-97.133,29.626-98.303c5.853-1.978,10.656-3.352,13.258-9.75
		c3.874-9.523-15.764-13.984-19.902-15.093c-4.137-1.11-23.372-7.072-24.783,3.112c-0.947,6.841,2.525,10.433,6.602,15.074
		c2.417,2.752-10.511,52.268-23.613,100.24c-9.938-2.127-20.07-3.722-30.366-4.759c1.127-27.936,2.56-51.123,4.395-52.25
		c4.057-2.494,7.43-4.352,8.285-9.606c1.273-7.822-14.251-7.796-17.55-7.919c-3.3-0.121-18.778-1.293-18.087,6.602
		c0.465,5.304,3.692,7.405,7.554,10.192c1.734,1.251,1.468,24.183,0.544,51.88c-5.011-0.237-10.055-0.347-15.131-0.317
		c-6.667,0.04-13.275,0.319-19.822,0.817c-2.824-39.041-4.651-73.077-2.322-74.887c4.791-3.726,8.803-6.552,9.15-13.329
		c0.517-10.086-19.143-7.88-23.34-7.573c-4.197,0.308-23.968,0.99-21.987,10.894c1.332,6.653,5.713,8.864,10.995,11.853
		c2.581,1.46,5.757,35.791,8.666,75.116c-8.635,1.249-17.142,2.896-25.501,4.916c-10.092-33.891-18.591-64.336-16.903-66.367
		c3.351-4.03,6.212-7.155,5.251-12.935c-1.431-8.602-17.604-3.103-21.086-2.067c-3.483,1.036-20.032,5.272-16.528,13.257
		c2.355,5.365,6.46,6.419,11.467,7.961c2.516,0.775,11.984,30.705,22.021,64.456c-8.511,2.597-16.849,5.59-24.992,8.956
		c-24.363-40.805-47.673-81.037-46.158-84.191c2.693-5.606,5.084-10.03,2.309-16.406c-4.13-9.49-21.161,1.511-24.871,3.709
		c-3.71,2.198-21.538,11.852-15.199,20.033c4.26,5.496,9.289,5.524,15.5,5.854c3.442,0.183,26.881,38.791,50.61,79.112
		c-11.078,5.523-21.735,11.76-31.914,18.65c-6.545-9.776-10.524-16.436-10.08-17.619c1.806-4.821,3.451-8.645,0.692-13.696
		c-4.107-7.519-17.334,2.809-20.23,4.895c-2.897,2.086-16.881,11.363-11.05,17.639c3.918,4.217,8.066,3.868,13.211,3.682
		c1.264-0.046,6.328,5.846,13.536,15.161c-8.421,6.488-16.461,13.445-24.08,20.833c-29.385-28.868-57.31-57.069-56.733-60.049
		c1.045-5.389,2.095-9.702-1.701-14.523c-5.65-7.177-17.727,6.026-20.402,8.733c-2.675,2.707-15.734,14.94-8.49,20.505
		c4.867,3.739,9.166,2.637,14.542,1.529c2.977-0.614,31.577,27.046,60.832,56.125c-5.641,6.183-11.01,12.618-16.083,19.289
		c-15.468-11.314-26.209-19.78-26.165-21.499c0.137-5.274,0.451-9.528-3.912-13.498c-6.493-5.909-15.85,8.519-17.958,11.509
		c-2.107,2.99-12.551,16.654-4.803,20.782c5.205,2.775,9.107,1.049,14.028-0.853c1.602-0.619,13.147,6.625,28.959,17.359
		c-9.137,13.657-17.098,28.165-23.745,43.376c-41.801-20.508-81.972-40.897-82.412-44.298c-0.794-6.122-1.199-11.097-6.959-14.901
		c-8.573-5.66-16.789,12.71-18.686,16.548c-1.897,3.837-11.505,21.519-1.802,24.894c6.519,2.268,10.718-0.431,16.065-3.519
		c3.004-1.735,44.488,18.269,86.659,39.291c-2.473,6.943-4.678,14.012-6.603,21.195c-17.726-4.401-30.489-8.028-31.05-9.521
		c-1.639-4.358-2.795-7.941-7.681-9.739c-7.272-2.676-10.133,12.229-10.864,15.374c-0.731,3.145-4.733,17.785,2.974,18.589
		c5.178,0.54,7.795-2.166,11.188-5.355c1.16-1.091,14.167,1.27,31.964,5.121c-2.83,13.394-4.697,27.141-5.53,41.164
		c-47.804-2.69-97.813-6.039-99.588-9.09c-2.945-5.064-5.129-9.267-11.566-10.476c-9.581-1.799-10.013,17.292-10.261,21.347
		c-0.249,4.054-2.152,23.055,7.577,22.44c6.537-0.413,9.218-4.318,12.76-8.985c2.143-2.825,52.619-0.003,100.583,3.184
		c0.001,0.026,0,0.051,0,0.076c0.055,9.246,0.564,18.383,1.495,27.393c-17.484,1.257-29.771,1.666-30.79,0.405
		c-3.293-4.072-5.797-7.487-11.649-7.676c-8.71-0.282-6.486,16.643-6.152,20.258c0.333,3.615,1.245,20.661,9.756,18.79
		c5.718-1.257,7.554-5.073,10.046-9.679c0.782-1.445,13.25-3.322,31.041-5.315c2.067,12.512,4.963,24.742,8.633,36.63
		c-39.015,13.933-76.574,26.756-79.019,24.925c-4.451-3.331-7.918-6.193-13.99-4.862c-9.036,1.982-2.334,18.819-1.047,22.453
		c1.286,3.634,6.671,20.938,14.941,16.792c5.557-2.786,6.45-7.191,7.814-12.581c0.748-2.958,37.911-16.59,76.946-30.292
		c3.608,9.524,7.722,18.798,12.309,27.79c-25.716,13.601-47.293,24.424-49.268,23.364c-4.378-2.351-7.823-4.419-13.012-2.432
		c-7.723,2.956,0.446,16.945,2.067,19.985c1.621,3.04,8.687,17.616,15.444,12.85c4.54-3.202,4.743-7.215,5.23-12.16
		c0.219-2.235,21.299-14.159,46.978-27.966c6.264,10.753,13.227,21.048,20.825,30.825c-39.87,31.626-86.39,67.969-90.017,66.771
		c-5.51-1.819-9.89-3.501-15.456-0.168c-8.285,4.961,3.936,19.398,6.415,22.566c2.479,3.169,13.55,18.505,20.359,11.658
		c4.574-4.6,3.997-9.256,3.557-15.043c-0.29-3.822,46.515-40.475,86.908-71.634c8.749,9.851,18.184,19.078,28.229,27.607
		c-7.457,8.651-12.69,14.149-13.884,14.04c-4.697-0.43-8.473-0.959-12.269,2.7c-5.65,5.446,6.673,14.636,9.217,16.691
		c2.544,2.054,14.121,12.168,18.257,5.498c2.779-4.481,1.467-8.062,0.058-12.563c-0.358-1.146,3.928-7.435,10.833-16.567
		c7.017,5.313,14.293,10.3,21.804,14.942c-25.331,44.486-53.717,93.322-57.51,93.566c-6.003,0.387-10.866,0.469-14.926,5.831
		c-6.042,7.981,11.305,17.123,14.918,19.209c3.612,2.086,20.203,12.538,24.094,3.315c2.615-6.197,0.254-10.449-2.412-15.842
		c-1.686-3.409,26.445-52.459,52.319-96.655c11.706,6.176,23.901,11.545,36.514,16.032c-9.683,25.684-18.03,46.369-20.114,46.862
		c-4.79,1.133-8.703,1.863-11.244,6.744c-3.784,7.265,11.461,12.268,14.659,13.458c3.199,1.189,18.013,7.354,19.891-0.619
		c1.263-5.357-1.224-8.465-4.111-12.451c-1.266-1.748,6.042-23.181,15.59-49.231c5.86,1.723,11.799,3.261,17.811,4.604
		c-8.763,45.53-18.629,94.203-21.795,95.513c-5.144,2.129-9.381,3.651-11.339,9.56c-2.914,8.795,15.011,11.633,18.798,12.383
		c3.787,0.75,21.44,4.961,22.099-4.28c0.443-6.209-2.893-9.231-6.837-13.161c-2.43-2.422,7.027-51.269,16.296-96.738
		c14.826,2.341,30.038,3.516,45.537,3.424c2.347-0.014,4.687-0.058,7.02-0.13c0.507,25.558,0.379,45.504-1.3,46.692
		c-4.167,2.947-7.645,5.166-8.196,10.844c-0.821,8.453,15.776,7.352,19.313,7.255c3.537-0.097,20.17,0.086,18.885-8.307
		c-0.864-5.64-4.458-7.664-8.781-10.377c-1.754-1.101-2.984-21.267-3.887-47.059c5.676-0.498,11.303-1.164,16.876-1.997
		c7.254,49.364,14.562,102.668,11.808,105.125c-4.448,3.967-8.194,7-8.087,13.663c0.159,9.917,19.277,6.46,23.369,5.882
		c4.092-0.578,23.42-2.551,20.826-12.124c-1.744-6.431-6.183-8.309-11.555-10.889c-3.345-1.606-11.15-55.401-17.875-105.06
		c13.651-2.993,26.927-6.984,39.746-11.893c7.375,20.496,12.529,36.216,11.473,37.673c-2.771,3.824-5.157,6.806-3.948,11.945
		c1.801,7.65,16.015,1.738,19.085,0.598c3.069-1.14,17.697-5.938,14.068-12.909c-2.438-4.684-6.191-5.386-10.787-6.474
		c-1.766-0.418-8.215-15.947-16.093-36.546c7.045-3.142,13.936-6.568,20.658-10.261c20.805,40.386,41.801,82.28,40.163,85.197
		c-2.758,4.911-5.174,8.77-3.035,14.693c3.184,8.815,19.21-0.142,22.689-1.914c3.48-1.772,20.148-9.466,14.892-17.225
		c-3.531-5.214-8.075-5.529-13.668-6.186c-3.351-0.393-25.214-42.698-45.789-83.591c13.023-8.276,25.313-17.598,36.751-27.851
		c16.929,20.709,29.992,37.516,29.384,39.545c-1.453,4.843-2.812,8.699,0.225,13.466c4.519,7.097,16.799-3.895,19.5-6.131
		c2.7-2.235,15.791-12.246,9.664-18.012c-4.117-3.873-8.158-3.258-13.188-2.736c-2.136,0.222-16.558-16.184-34.055-37.078
		c3.075-3.087,6.078-6.247,9.006-9.475c26.818,23.391,49.513,43.97,49.17,46.641c-0.718,5.59-1.513,10.078,2.692,14.771
		c6.259,6.985,17.771-7.333,20.335-10.281c2.564-2.949,15.147-16.336,7.361-21.565c-5.231-3.513-9.564-2.103-15.001-0.617
		c-2.602,0.712-26.205-18.976-53.147-42.341c10.329-12.927,19.531-26.792,27.461-41.443c19.691,12.268,34.631,22.15,34.706,24.034
		c0.188,4.773,0.157,8.636,4.333,11.966c6.216,4.954,13.818-8.636,15.546-11.462c1.728-2.826,10.355-15.791,3.11-19.063
		c-4.867-2.198-8.291-0.409-12.624,1.601c-1.74,0.807-17.858-8.3-38.244-20.539c2.832-5.987,5.458-12.089,7.868-18.3
		c29.372,10.192,52.723,18.928,53.352,21.294c1.479,5.568,2.46,10.122,8.252,12.939c8.621,4.193,13.987-13.803,15.275-17.584
		c1.288-3.781,8.025-21.31-1.362-23.253c-6.308-1.304-9.864,1.704-14.435,5.21c-1.939,1.488-25.687-5.821-55.102-15.655
		c3.905-12.409,6.965-25.189,9.116-38.275c12.445,2.434,20.739,4.459,21.267,5.629c1.964,4.359,3.383,7.955,8.506,9.478
		c7.625,2.267,9.585-13.193,10.128-16.463c0.543-3.27,3.689-18.534-4.261-18.853c-5.341-0.216-7.845,2.728-11.114,6.218
		c-0.888,0.949-9.591,0.151-22.409-1.614c1.111-10.399,1.653-20.967,1.589-31.673c-0.02-3.497-0.108-6.98-0.256-10.446
		c35.615,0.324,66.295,1.192,67.772,3.445c3.087,4.709,5.399,8.631,11.639,9.46c9.288,1.233,8.721-17.112,8.751-21.015
		C769.464,372.053,770.314,353.719,761.009,354.811z"></path>
</g>
</svg>
