<!--?xml version="1.0" encoding="utf-8"?-->
<!-- Generator: Adobe Illustrator 22.1.0, SVG Export Plug-In . SVG Version: 6.00 Build 0)  -->
<svg version="1.1" id="_x38_" xmlns="http://www.w3.org/2000/svg" xmlns:xlink="http://www.w3.org/1999/xlink" x="0px" y="0px" viewBox="0 0 619.608 800" style="width: 388px;" xml:space="preserve">
<style type="text/css">
	.st0{fill:#040000;}
</style>
<g>
	<path class="st0" d="M610.284,643.068c-10.071-6.726-24.161,16.71-51.614,2.858c-27.492-13.851-46.697-86.817-70.494-118.276
		c-17.882-23.622-45-44.987-65.702-59.389c-4.13-6.089-8.922-11.605-14.564-16.285c-49.217-40.981-88.026-94.779-103.875-131.742
		c-15.861-36.968-44.762-142.43-46.535-154.527c-1.784-12.092-9.571-110.589-14.488-115.357
		c-4.055-3.955-1.447-46.859-14.387-48.306c-12.941-1.43-17.334,32.563-24.596,33.474c-7.263,0.911-45.973,7.095-53.124,16.086
		c-7.15,8.966-10.294,15.461-12.716,16.31c-2.409,0.849-11.206,7.426-9.472,16.298c0.125,8.885,4.181,10.451,4.181,10.451
		s-4.755,6.526,3.419,12.878c8.162,6.346,21.215,15.075,22.925,22.319c1.71,7.244,8.411,24.94,1.247,33.925
		c-7.138,8.971-39.994,29.631-40.407,58.72c-0.425,29.113-45.697,146.872-80.228,162.696c-12.155-2.246-18.681-7.824-30.736-1.197
		c-12.03,6.638-7.811,19.504-0.486,23.436c-0.738,5.664,5.015,12.878,11.493,12.79c4.892,3.17,20.988-1.909,20.988-1.909
		s-2.383,4.069,16.198,3.831c18.595-0.249,102.254-56.318,102.254-56.318s27.267,119.987,114.533,165.423
		c14.55,14.564,14.387,29.288,14.787,36.552c0.412,7.275,37.362,90.186,59.426,108.393c22.051,18.194,35.366,53.884,26.618,71.368
		c-17.746,15.536-25.07,15.136-22.873,25.531c-3.495,9.909,1.708,16.098,7.312,14.975c8.46,6.8,11.917,10.681,22.912,4.392
		c10.969-6.264,22.188-8.511,25.994-27.328c3.805-18.845,6.002-52.138,3.993-59.314c10.294,10.782,22.799,46.497,10.794,63.345
		c-12.33,11.206-4.043,29.351,3.082,26.542c0.188,3.22,18.032,3.856,20.042-3.531c6.9,7.7,12.229,1.734,19.005-7.538
		c6.763-9.284,3.418-40.656-0.675-55.794c-4.067-15.162-8.997-60.211-14.276-67.998c-5.29-7.812-14.487-42.091-10.27-53.66
		c2.234-6.128,6.901-37.786,3.495-72.304c29.6,17.62,50.227,60.798,66.064,100.807c18.831,47.52,58.352,59.911,86.905,49.417
		C624.983,674.627,620.366,649.794,610.284,643.068z"></path>
</g>
</svg>
